<mxfile host="Electron" agent="Mozilla/5.0 (X11; Linux x86_64) AppleWebKit/537.36 (KHTML, like Gecko) draw.io/26.0.9 Chrome/128.0.6613.186 Electron/32.2.5 Safari/537.36" version="26.0.9">
  <diagram name="Page-1" id="LG_SALk49OsK56dyYdy5">
    <mxGraphModel dx="6266" dy="3972" grid="1" gridSize="10" guides="1" tooltips="1" connect="1" arrows="1" fold="1" page="1" pageScale="1" pageWidth="850" pageHeight="1100" math="0" shadow="0">
      <root>
        <mxCell id="0" />
        <mxCell id="1" parent="0" />
        <mxCell id="6ZaYhtCjvqtBv9yrYCe7-5" value="" style="edgeStyle=orthogonalEdgeStyle;rounded=0;orthogonalLoop=1;jettySize=auto;html=1;" parent="1" target="6ZaYhtCjvqtBv9yrYCe7-4" edge="1">
          <mxGeometry relative="1" as="geometry">
            <mxPoint x="855" y="-260" as="sourcePoint" />
          </mxGeometry>
        </mxCell>
        <mxCell id="6ZaYhtCjvqtBv9yrYCe7-22" style="edgeStyle=orthogonalEdgeStyle;rounded=0;orthogonalLoop=1;jettySize=auto;html=1;entryX=0.5;entryY=0;entryDx=0;entryDy=0;" parent="1" source="6ZaYhtCjvqtBv9yrYCe7-4" target="6ZaYhtCjvqtBv9yrYCe7-21" edge="1">
          <mxGeometry relative="1" as="geometry" />
        </mxCell>
        <mxCell id="6ZaYhtCjvqtBv9yrYCe7-124" style="edgeStyle=orthogonalEdgeStyle;rounded=0;orthogonalLoop=1;jettySize=auto;html=1;entryX=0.5;entryY=0;entryDx=0;entryDy=0;" parent="1" source="6ZaYhtCjvqtBv9yrYCe7-4" target="6ZaYhtCjvqtBv9yrYCe7-6" edge="1">
          <mxGeometry relative="1" as="geometry">
            <Array as="points">
              <mxPoint x="855" y="-50" />
              <mxPoint x="670" y="-50" />
            </Array>
          </mxGeometry>
        </mxCell>
        <mxCell id="6ZaYhtCjvqtBv9yrYCe7-4" value="str_len(pass) &amp;gt; 8&amp;nbsp;&lt;br&gt;and&amp;nbsp;&lt;br&gt;str_len(pass) &amp;lt; 25" style="rhombus;whiteSpace=wrap;html=1;" parent="1" vertex="1">
          <mxGeometry x="765" y="-170" width="180" height="80" as="geometry" />
        </mxCell>
        <mxCell id="6ZaYhtCjvqtBv9yrYCe7-26" style="edgeStyle=orthogonalEdgeStyle;rounded=0;orthogonalLoop=1;jettySize=auto;html=1;entryX=0.5;entryY=0;entryDx=0;entryDy=0;" parent="1" source="6ZaYhtCjvqtBv9yrYCe7-6" target="6ZaYhtCjvqtBv9yrYCe7-25" edge="1">
          <mxGeometry relative="1" as="geometry" />
        </mxCell>
        <mxCell id="6ZaYhtCjvqtBv9yrYCe7-125" style="edgeStyle=orthogonalEdgeStyle;rounded=0;orthogonalLoop=1;jettySize=auto;html=1;" parent="1" source="6ZaYhtCjvqtBv9yrYCe7-6" edge="1">
          <mxGeometry relative="1" as="geometry">
            <mxPoint x="460" y="100" as="targetPoint" />
            <Array as="points">
              <mxPoint x="670" y="80" />
              <mxPoint x="460" y="80" />
            </Array>
          </mxGeometry>
        </mxCell>
        <mxCell id="6ZaYhtCjvqtBv9yrYCe7-6" value="does the password contains lowercase letters" style="rhombus;whiteSpace=wrap;html=1;" parent="1" vertex="1">
          <mxGeometry x="580" y="-30" width="180" height="80" as="geometry" />
        </mxCell>
        <mxCell id="6ZaYhtCjvqtBv9yrYCe7-29" style="edgeStyle=orthogonalEdgeStyle;rounded=0;orthogonalLoop=1;jettySize=auto;html=1;entryX=0.5;entryY=0;entryDx=0;entryDy=0;" parent="1" source="6ZaYhtCjvqtBv9yrYCe7-9" target="6ZaYhtCjvqtBv9yrYCe7-28" edge="1">
          <mxGeometry relative="1" as="geometry" />
        </mxCell>
        <mxCell id="6ZaYhtCjvqtBv9yrYCe7-126" style="edgeStyle=orthogonalEdgeStyle;rounded=0;orthogonalLoop=1;jettySize=auto;html=1;" parent="1" source="6ZaYhtCjvqtBv9yrYCe7-9" edge="1">
          <mxGeometry relative="1" as="geometry">
            <mxPoint x="280" y="250" as="targetPoint" />
            <Array as="points">
              <mxPoint x="460" y="230" />
              <mxPoint x="280" y="230" />
            </Array>
          </mxGeometry>
        </mxCell>
        <mxCell id="6ZaYhtCjvqtBv9yrYCe7-9" value="does the password contains uppercase letters" style="rhombus;whiteSpace=wrap;html=1;" parent="1" vertex="1">
          <mxGeometry x="370" y="100" width="180" height="80" as="geometry" />
        </mxCell>
        <mxCell id="6ZaYhtCjvqtBv9yrYCe7-32" style="edgeStyle=orthogonalEdgeStyle;rounded=0;orthogonalLoop=1;jettySize=auto;html=1;entryX=0.5;entryY=0;entryDx=0;entryDy=0;" parent="1" source="6ZaYhtCjvqtBv9yrYCe7-11" target="6ZaYhtCjvqtBv9yrYCe7-31" edge="1">
          <mxGeometry relative="1" as="geometry" />
        </mxCell>
        <mxCell id="6ZaYhtCjvqtBv9yrYCe7-127" style="edgeStyle=orthogonalEdgeStyle;rounded=0;orthogonalLoop=1;jettySize=auto;html=1;entryX=0.5;entryY=0;entryDx=0;entryDy=0;" parent="1" source="6ZaYhtCjvqtBv9yrYCe7-11" target="6ZaYhtCjvqtBv9yrYCe7-14" edge="1">
          <mxGeometry relative="1" as="geometry">
            <Array as="points">
              <mxPoint x="280" y="360" />
              <mxPoint x="90" y="360" />
            </Array>
          </mxGeometry>
        </mxCell>
        <mxCell id="6ZaYhtCjvqtBv9yrYCe7-11" value="does the password contains digits&amp;nbsp;" style="rhombus;whiteSpace=wrap;html=1;" parent="1" vertex="1">
          <mxGeometry x="190" y="250" width="180" height="80" as="geometry" />
        </mxCell>
        <mxCell id="6ZaYhtCjvqtBv9yrYCe7-129" style="edgeStyle=orthogonalEdgeStyle;rounded=0;orthogonalLoop=1;jettySize=auto;html=1;" parent="1" source="6ZaYhtCjvqtBv9yrYCe7-14" target="6ZaYhtCjvqtBv9yrYCe7-128" edge="1">
          <mxGeometry relative="1" as="geometry" />
        </mxCell>
        <mxCell id="6ZaYhtCjvqtBv9yrYCe7-131" style="edgeStyle=orthogonalEdgeStyle;rounded=0;orthogonalLoop=1;jettySize=auto;html=1;" parent="1" source="6ZaYhtCjvqtBv9yrYCe7-14" target="6ZaYhtCjvqtBv9yrYCe7-130" edge="1">
          <mxGeometry relative="1" as="geometry" />
        </mxCell>
        <mxCell id="6ZaYhtCjvqtBv9yrYCe7-14" value="does the password contains special carachters" style="rhombus;whiteSpace=wrap;html=1;" parent="1" vertex="1">
          <mxGeometry y="380" width="180" height="80" as="geometry" />
        </mxCell>
        <mxCell id="6ZaYhtCjvqtBv9yrYCe7-16" value="score = 0&amp;nbsp;" style="rounded=0;whiteSpace=wrap;html=1;" parent="1" vertex="1">
          <mxGeometry x="795" y="-320" width="120" height="60" as="geometry" />
        </mxCell>
        <mxCell id="6ZaYhtCjvqtBv9yrYCe7-17" value="" style="edgeStyle=orthogonalEdgeStyle;rounded=0;orthogonalLoop=1;jettySize=auto;html=1;" parent="1" source="6ZaYhtCjvqtBv9yrYCe7-18" target="6ZaYhtCjvqtBv9yrYCe7-19" edge="1">
          <mxGeometry relative="1" as="geometry" />
        </mxCell>
        <mxCell id="6ZaYhtCjvqtBv9yrYCe7-18" value="password validation&amp;nbsp;" style="rounded=1;whiteSpace=wrap;html=1;arcSize=50;" parent="1" vertex="1">
          <mxGeometry x="795" y="-560" width="120" height="60" as="geometry" />
        </mxCell>
        <mxCell id="6ZaYhtCjvqtBv9yrYCe7-20" value="" style="edgeStyle=orthogonalEdgeStyle;rounded=0;orthogonalLoop=1;jettySize=auto;html=1;" parent="1" source="6ZaYhtCjvqtBv9yrYCe7-19" target="6ZaYhtCjvqtBv9yrYCe7-16" edge="1">
          <mxGeometry relative="1" as="geometry" />
        </mxCell>
        <mxCell id="6ZaYhtCjvqtBv9yrYCe7-19" value="pass" style="shape=parallelogram;perimeter=parallelogramPerimeter;whiteSpace=wrap;html=1;fixedSize=1;" parent="1" vertex="1">
          <mxGeometry x="795" y="-450" width="120" height="60" as="geometry" />
        </mxCell>
        <mxCell id="6ZaYhtCjvqtBv9yrYCe7-23" value="" style="edgeStyle=orthogonalEdgeStyle;rounded=0;orthogonalLoop=1;jettySize=auto;html=1;" parent="1" source="6ZaYhtCjvqtBv9yrYCe7-21" target="6ZaYhtCjvqtBv9yrYCe7-6" edge="1">
          <mxGeometry relative="1" as="geometry" />
        </mxCell>
        <mxCell id="6ZaYhtCjvqtBv9yrYCe7-21" value="score = score + 1" style="rounded=0;whiteSpace=wrap;html=1;" parent="1" vertex="1">
          <mxGeometry x="610" y="-90" width="120" height="30" as="geometry" />
        </mxCell>
        <mxCell id="6ZaYhtCjvqtBv9yrYCe7-27" value="" style="edgeStyle=orthogonalEdgeStyle;rounded=0;orthogonalLoop=1;jettySize=auto;html=1;" parent="1" source="6ZaYhtCjvqtBv9yrYCe7-25" target="6ZaYhtCjvqtBv9yrYCe7-9" edge="1">
          <mxGeometry relative="1" as="geometry" />
        </mxCell>
        <mxCell id="6ZaYhtCjvqtBv9yrYCe7-25" value="score = score + 1" style="rounded=0;whiteSpace=wrap;html=1;" parent="1" vertex="1">
          <mxGeometry x="400" y="30" width="120" height="30" as="geometry" />
        </mxCell>
        <mxCell id="6ZaYhtCjvqtBv9yrYCe7-30" value="" style="edgeStyle=orthogonalEdgeStyle;rounded=0;orthogonalLoop=1;jettySize=auto;html=1;" parent="1" source="6ZaYhtCjvqtBv9yrYCe7-28" target="6ZaYhtCjvqtBv9yrYCe7-11" edge="1">
          <mxGeometry relative="1" as="geometry" />
        </mxCell>
        <mxCell id="6ZaYhtCjvqtBv9yrYCe7-28" value="score = score + 1" style="rounded=0;whiteSpace=wrap;html=1;" parent="1" vertex="1">
          <mxGeometry x="220" y="180" width="120" height="30" as="geometry" />
        </mxCell>
        <mxCell id="6ZaYhtCjvqtBv9yrYCe7-33" value="" style="edgeStyle=orthogonalEdgeStyle;rounded=0;orthogonalLoop=1;jettySize=auto;html=1;" parent="1" source="6ZaYhtCjvqtBv9yrYCe7-31" target="6ZaYhtCjvqtBv9yrYCe7-14" edge="1">
          <mxGeometry relative="1" as="geometry" />
        </mxCell>
        <mxCell id="6ZaYhtCjvqtBv9yrYCe7-31" value="score = score + 1" style="rounded=0;whiteSpace=wrap;html=1;" parent="1" vertex="1">
          <mxGeometry x="30" y="320" width="120" height="30" as="geometry" />
        </mxCell>
        <mxCell id="6ZaYhtCjvqtBv9yrYCe7-58" value="" style="edgeStyle=orthogonalEdgeStyle;rounded=0;orthogonalLoop=1;jettySize=auto;html=1;" parent="1" source="6ZaYhtCjvqtBv9yrYCe7-35" target="6ZaYhtCjvqtBv9yrYCe7-57" edge="1">
          <mxGeometry relative="1" as="geometry" />
        </mxCell>
        <mxCell id="6ZaYhtCjvqtBv9yrYCe7-35" value="str_len&amp;nbsp;" style="rounded=1;whiteSpace=wrap;html=1;arcSize=50;" parent="1" vertex="1">
          <mxGeometry x="2075.5" y="1140" width="120" height="60" as="geometry" />
        </mxCell>
        <mxCell id="6ZaYhtCjvqtBv9yrYCe7-39" value="" style="edgeStyle=orthogonalEdgeStyle;rounded=0;orthogonalLoop=1;jettySize=auto;html=1;" parent="1" source="6ZaYhtCjvqtBv9yrYCe7-36" target="6ZaYhtCjvqtBv9yrYCe7-38" edge="1">
          <mxGeometry relative="1" as="geometry" />
        </mxCell>
        <mxCell id="6ZaYhtCjvqtBv9yrYCe7-36" value="count = 0&amp;nbsp;" style="rounded=0;whiteSpace=wrap;html=1;" parent="1" vertex="1">
          <mxGeometry x="2075" y="1310" width="120" height="60" as="geometry" />
        </mxCell>
        <mxCell id="6ZaYhtCjvqtBv9yrYCe7-46" style="edgeStyle=orthogonalEdgeStyle;rounded=0;orthogonalLoop=1;jettySize=auto;html=1;" parent="1" source="6ZaYhtCjvqtBv9yrYCe7-38" target="6ZaYhtCjvqtBv9yrYCe7-45" edge="1">
          <mxGeometry relative="1" as="geometry" />
        </mxCell>
        <mxCell id="6ZaYhtCjvqtBv9yrYCe7-48" style="edgeStyle=orthogonalEdgeStyle;rounded=0;orthogonalLoop=1;jettySize=auto;html=1;" parent="1" source="6ZaYhtCjvqtBv9yrYCe7-38" target="6ZaYhtCjvqtBv9yrYCe7-47" edge="1">
          <mxGeometry relative="1" as="geometry" />
        </mxCell>
        <mxCell id="6ZaYhtCjvqtBv9yrYCe7-38" value="string[count] != &#39;\0&#39;&amp;nbsp;&amp;nbsp;" style="rhombus;whiteSpace=wrap;html=1;" parent="1" vertex="1">
          <mxGeometry x="2038" y="1420" width="195" height="80" as="geometry" />
        </mxCell>
        <mxCell id="6ZaYhtCjvqtBv9yrYCe7-40" value="yes&amp;nbsp;" style="text;html=1;align=center;verticalAlign=middle;whiteSpace=wrap;rounded=0;" parent="1" vertex="1">
          <mxGeometry x="1980" y="1430" width="60" height="30" as="geometry" />
        </mxCell>
        <mxCell id="6ZaYhtCjvqtBv9yrYCe7-41" value="yes" style="text;html=1;align=center;verticalAlign=middle;whiteSpace=wrap;rounded=0;" parent="1" vertex="1">
          <mxGeometry x="700" y="-170" width="60" height="30" as="geometry" />
        </mxCell>
        <mxCell id="6ZaYhtCjvqtBv9yrYCe7-42" value="yes" style="text;html=1;align=center;verticalAlign=middle;whiteSpace=wrap;rounded=0;" parent="1" vertex="1">
          <mxGeometry x="500" y="-30" width="60" height="30" as="geometry" />
        </mxCell>
        <mxCell id="6ZaYhtCjvqtBv9yrYCe7-43" value="yes" style="text;html=1;align=center;verticalAlign=middle;whiteSpace=wrap;rounded=0;" parent="1" vertex="1">
          <mxGeometry x="300" y="100" width="60" height="30" as="geometry" />
        </mxCell>
        <mxCell id="6ZaYhtCjvqtBv9yrYCe7-44" value="yes" style="text;html=1;align=center;verticalAlign=middle;whiteSpace=wrap;rounded=0;" parent="1" vertex="1">
          <mxGeometry x="120" y="250" width="60" height="30" as="geometry" />
        </mxCell>
        <mxCell id="6ZaYhtCjvqtBv9yrYCe7-51" value="" style="edgeStyle=orthogonalEdgeStyle;rounded=0;orthogonalLoop=1;jettySize=auto;html=1;" parent="1" source="6ZaYhtCjvqtBv9yrYCe7-45" target="6ZaYhtCjvqtBv9yrYCe7-50" edge="1">
          <mxGeometry relative="1" as="geometry" />
        </mxCell>
        <mxCell id="6ZaYhtCjvqtBv9yrYCe7-45" value="count" style="shape=parallelogram;perimeter=parallelogramPerimeter;whiteSpace=wrap;html=1;fixedSize=1;" parent="1" vertex="1">
          <mxGeometry x="2270" y="1530" width="120" height="60" as="geometry" />
        </mxCell>
        <mxCell id="6ZaYhtCjvqtBv9yrYCe7-49" style="edgeStyle=orthogonalEdgeStyle;rounded=0;orthogonalLoop=1;jettySize=auto;html=1;entryX=0.5;entryY=0;entryDx=0;entryDy=0;" parent="1" source="6ZaYhtCjvqtBv9yrYCe7-47" target="6ZaYhtCjvqtBv9yrYCe7-38" edge="1">
          <mxGeometry relative="1" as="geometry">
            <Array as="points">
              <mxPoint x="1950" y="1660" />
              <mxPoint x="1840" y="1660" />
              <mxPoint x="1840" y="1400" />
              <mxPoint x="2136" y="1400" />
            </Array>
          </mxGeometry>
        </mxCell>
        <mxCell id="6ZaYhtCjvqtBv9yrYCe7-47" value="count = count + 1&amp;nbsp;" style="rounded=0;whiteSpace=wrap;html=1;" parent="1" vertex="1">
          <mxGeometry x="1900" y="1520" width="120" height="60" as="geometry" />
        </mxCell>
        <mxCell id="6ZaYhtCjvqtBv9yrYCe7-50" value="END" style="rounded=1;whiteSpace=wrap;html=1;arcSize=50;" parent="1" vertex="1">
          <mxGeometry x="2270" y="1630" width="120" height="60" as="geometry" />
        </mxCell>
        <mxCell id="6ZaYhtCjvqtBv9yrYCe7-54" value="" style="edgeStyle=orthogonalEdgeStyle;rounded=0;orthogonalLoop=1;jettySize=auto;html=1;" parent="1" source="6ZaYhtCjvqtBv9yrYCe7-52" target="6ZaYhtCjvqtBv9yrYCe7-53" edge="1">
          <mxGeometry relative="1" as="geometry" />
        </mxCell>
        <mxCell id="6ZaYhtCjvqtBv9yrYCe7-52" value="contains_lowercase_letters" style="rounded=1;whiteSpace=wrap;html=1;arcSize=50;" parent="1" vertex="1">
          <mxGeometry x="-488.5" y="1140" width="195" height="60" as="geometry" />
        </mxCell>
        <mxCell id="6ZaYhtCjvqtBv9yrYCe7-65" value="" style="edgeStyle=orthogonalEdgeStyle;rounded=0;orthogonalLoop=1;jettySize=auto;html=1;" parent="1" source="6ZaYhtCjvqtBv9yrYCe7-53" target="6ZaYhtCjvqtBv9yrYCe7-64" edge="1">
          <mxGeometry relative="1" as="geometry" />
        </mxCell>
        <mxCell id="6ZaYhtCjvqtBv9yrYCe7-53" value="text" style="shape=parallelogram;perimeter=parallelogramPerimeter;whiteSpace=wrap;html=1;fixedSize=1;" parent="1" vertex="1">
          <mxGeometry x="-451" y="1270" width="120" height="60" as="geometry" />
        </mxCell>
        <mxCell id="6ZaYhtCjvqtBv9yrYCe7-63" style="edgeStyle=orthogonalEdgeStyle;rounded=0;orthogonalLoop=1;jettySize=auto;html=1;entryX=0.5;entryY=0;entryDx=0;entryDy=0;" parent="1" source="6ZaYhtCjvqtBv9yrYCe7-55" edge="1">
          <mxGeometry relative="1" as="geometry">
            <mxPoint x="-131.00000000000045" y="1800" as="targetPoint" />
          </mxGeometry>
        </mxCell>
        <mxCell id="6ZaYhtCjvqtBv9yrYCe7-77" style="edgeStyle=orthogonalEdgeStyle;rounded=0;orthogonalLoop=1;jettySize=auto;html=1;" parent="1" source="6ZaYhtCjvqtBv9yrYCe7-55" target="6ZaYhtCjvqtBv9yrYCe7-76" edge="1">
          <mxGeometry relative="1" as="geometry">
            <Array as="points">
              <mxPoint x="-600" y="1715" />
            </Array>
          </mxGeometry>
        </mxCell>
        <mxCell id="6ZaYhtCjvqtBv9yrYCe7-55" value="text[i] &amp;lt;= 122 and text[i] &amp;gt;= 97&amp;nbsp;" style="rhombus;whiteSpace=wrap;html=1;" parent="1" vertex="1">
          <mxGeometry x="-553" y="1650" width="322" height="130" as="geometry" />
        </mxCell>
        <mxCell id="6ZaYhtCjvqtBv9yrYCe7-59" value="" style="edgeStyle=orthogonalEdgeStyle;rounded=0;orthogonalLoop=1;jettySize=auto;html=1;" parent="1" source="6ZaYhtCjvqtBv9yrYCe7-57" target="6ZaYhtCjvqtBv9yrYCe7-36" edge="1">
          <mxGeometry relative="1" as="geometry" />
        </mxCell>
        <mxCell id="6ZaYhtCjvqtBv9yrYCe7-57" value="string" style="shape=parallelogram;perimeter=parallelogramPerimeter;whiteSpace=wrap;html=1;fixedSize=1;" parent="1" vertex="1">
          <mxGeometry x="2076" y="1230" width="120" height="60" as="geometry" />
        </mxCell>
        <mxCell id="6ZaYhtCjvqtBv9yrYCe7-80" style="edgeStyle=orthogonalEdgeStyle;rounded=0;orthogonalLoop=1;jettySize=auto;html=1;" parent="1" source="6ZaYhtCjvqtBv9yrYCe7-61" target="6ZaYhtCjvqtBv9yrYCe7-78" edge="1">
          <mxGeometry relative="1" as="geometry" />
        </mxCell>
        <mxCell id="6ZaYhtCjvqtBv9yrYCe7-61" value="false&amp;nbsp;" style="shape=parallelogram;perimeter=parallelogramPerimeter;whiteSpace=wrap;html=1;fixedSize=1;" parent="1" vertex="1">
          <mxGeometry x="-820" y="1800" width="120" height="60" as="geometry" />
        </mxCell>
        <mxCell id="6ZaYhtCjvqtBv9yrYCe7-69" value="" style="edgeStyle=orthogonalEdgeStyle;rounded=0;orthogonalLoop=1;jettySize=auto;html=1;" parent="1" source="6ZaYhtCjvqtBv9yrYCe7-64" target="6ZaYhtCjvqtBv9yrYCe7-68" edge="1">
          <mxGeometry relative="1" as="geometry" />
        </mxCell>
        <mxCell id="6ZaYhtCjvqtBv9yrYCe7-64" value="i = 0&amp;nbsp;" style="rounded=0;whiteSpace=wrap;html=1;" parent="1" vertex="1">
          <mxGeometry x="-451" y="1380" width="120" height="60" as="geometry" />
        </mxCell>
        <mxCell id="6ZaYhtCjvqtBv9yrYCe7-75" style="edgeStyle=orthogonalEdgeStyle;rounded=0;orthogonalLoop=1;jettySize=auto;html=1;entryX=0.5;entryY=0;entryDx=0;entryDy=0;" parent="1" source="6ZaYhtCjvqtBv9yrYCe7-67" target="6ZaYhtCjvqtBv9yrYCe7-68" edge="1">
          <mxGeometry relative="1" as="geometry">
            <Array as="points">
              <mxPoint x="-130" y="1910" />
              <mxPoint x="10" y="1910" />
              <mxPoint x="10" y="1470" />
              <mxPoint x="-392" y="1470" />
            </Array>
          </mxGeometry>
        </mxCell>
        <mxCell id="6ZaYhtCjvqtBv9yrYCe7-67" value="i = i + 1" style="rounded=0;whiteSpace=wrap;html=1;" parent="1" vertex="1">
          <mxGeometry x="-190" y="1800" width="120" height="60" as="geometry" />
        </mxCell>
        <mxCell id="6ZaYhtCjvqtBv9yrYCe7-70" value="" style="edgeStyle=orthogonalEdgeStyle;rounded=0;orthogonalLoop=1;jettySize=auto;html=1;" parent="1" source="6ZaYhtCjvqtBv9yrYCe7-68" target="6ZaYhtCjvqtBv9yrYCe7-55" edge="1">
          <mxGeometry relative="1" as="geometry" />
        </mxCell>
        <mxCell id="6ZaYhtCjvqtBv9yrYCe7-72" style="edgeStyle=orthogonalEdgeStyle;rounded=0;orthogonalLoop=1;jettySize=auto;html=1;" parent="1" source="6ZaYhtCjvqtBv9yrYCe7-68" target="6ZaYhtCjvqtBv9yrYCe7-61" edge="1">
          <mxGeometry relative="1" as="geometry" />
        </mxCell>
        <mxCell id="6ZaYhtCjvqtBv9yrYCe7-68" value="text[i] != 0&amp;nbsp;" style="rhombus;whiteSpace=wrap;html=1;" parent="1" vertex="1">
          <mxGeometry x="-517" y="1490" width="250" height="90" as="geometry" />
        </mxCell>
        <mxCell id="6ZaYhtCjvqtBv9yrYCe7-71" value="yes" style="text;html=1;align=center;verticalAlign=middle;whiteSpace=wrap;rounded=0;" parent="1" vertex="1">
          <mxGeometry x="-384" y="1600" width="60" height="30" as="geometry" />
        </mxCell>
        <mxCell id="6ZaYhtCjvqtBv9yrYCe7-74" value="yes" style="text;html=1;align=center;verticalAlign=middle;whiteSpace=wrap;rounded=0;" parent="1" vertex="1">
          <mxGeometry x="-590" y="1670" width="60" height="30" as="geometry" />
        </mxCell>
        <mxCell id="6ZaYhtCjvqtBv9yrYCe7-79" style="edgeStyle=orthogonalEdgeStyle;rounded=0;orthogonalLoop=1;jettySize=auto;html=1;" parent="1" source="6ZaYhtCjvqtBv9yrYCe7-76" target="6ZaYhtCjvqtBv9yrYCe7-78" edge="1">
          <mxGeometry relative="1" as="geometry" />
        </mxCell>
        <mxCell id="6ZaYhtCjvqtBv9yrYCe7-76" value="true" style="shape=parallelogram;perimeter=parallelogramPerimeter;whiteSpace=wrap;html=1;fixedSize=1;" parent="1" vertex="1">
          <mxGeometry x="-660" y="1800" width="120" height="60" as="geometry" />
        </mxCell>
        <mxCell id="6ZaYhtCjvqtBv9yrYCe7-78" value="end" style="rounded=1;whiteSpace=wrap;html=1;arcSize=50;" parent="1" vertex="1">
          <mxGeometry x="-750" y="1940" width="120" height="60" as="geometry" />
        </mxCell>
        <mxCell id="6ZaYhtCjvqtBv9yrYCe7-81" value="" style="edgeStyle=orthogonalEdgeStyle;rounded=0;orthogonalLoop=1;jettySize=auto;html=1;" parent="1" source="6ZaYhtCjvqtBv9yrYCe7-82" target="6ZaYhtCjvqtBv9yrYCe7-84" edge="1">
          <mxGeometry relative="1" as="geometry" />
        </mxCell>
        <mxCell id="6ZaYhtCjvqtBv9yrYCe7-82" value="contains_upper&lt;span style=&quot;background-color: transparent; color: light-dark(rgb(0, 0, 0), rgb(255, 255, 255));&quot;&gt;case_letters&lt;/span&gt;" style="rounded=1;whiteSpace=wrap;html=1;arcSize=50;" parent="1" vertex="1">
          <mxGeometry x="361.39" y="1140" width="195" height="60" as="geometry" />
        </mxCell>
        <mxCell id="6ZaYhtCjvqtBv9yrYCe7-83" value="" style="edgeStyle=orthogonalEdgeStyle;rounded=0;orthogonalLoop=1;jettySize=auto;html=1;" parent="1" source="6ZaYhtCjvqtBv9yrYCe7-84" target="6ZaYhtCjvqtBv9yrYCe7-91" edge="1">
          <mxGeometry relative="1" as="geometry" />
        </mxCell>
        <mxCell id="6ZaYhtCjvqtBv9yrYCe7-84" value="text" style="shape=parallelogram;perimeter=parallelogramPerimeter;whiteSpace=wrap;html=1;fixedSize=1;" parent="1" vertex="1">
          <mxGeometry x="398.89" y="1270" width="120" height="60" as="geometry" />
        </mxCell>
        <mxCell id="6ZaYhtCjvqtBv9yrYCe7-85" style="edgeStyle=orthogonalEdgeStyle;rounded=0;orthogonalLoop=1;jettySize=auto;html=1;entryX=0.5;entryY=0;entryDx=0;entryDy=0;" parent="1" source="6ZaYhtCjvqtBv9yrYCe7-87" edge="1">
          <mxGeometry relative="1" as="geometry">
            <mxPoint x="718.8899999999995" y="1800" as="targetPoint" />
          </mxGeometry>
        </mxCell>
        <mxCell id="6ZaYhtCjvqtBv9yrYCe7-86" style="edgeStyle=orthogonalEdgeStyle;rounded=0;orthogonalLoop=1;jettySize=auto;html=1;" parent="1" source="6ZaYhtCjvqtBv9yrYCe7-87" target="6ZaYhtCjvqtBv9yrYCe7-100" edge="1">
          <mxGeometry relative="1" as="geometry">
            <Array as="points">
              <mxPoint x="249.89" y="1715" />
            </Array>
          </mxGeometry>
        </mxCell>
        <mxCell id="6ZaYhtCjvqtBv9yrYCe7-87" value="text[i] &amp;lt;= 47 and text[i] &amp;gt;= 33&amp;nbsp;" style="rhombus;whiteSpace=wrap;html=1;" parent="1" vertex="1">
          <mxGeometry x="296.89" y="1650" width="322" height="130" as="geometry" />
        </mxCell>
        <mxCell id="6ZaYhtCjvqtBv9yrYCe7-88" style="edgeStyle=orthogonalEdgeStyle;rounded=0;orthogonalLoop=1;jettySize=auto;html=1;" parent="1" source="6ZaYhtCjvqtBv9yrYCe7-89" target="6ZaYhtCjvqtBv9yrYCe7-101" edge="1">
          <mxGeometry relative="1" as="geometry" />
        </mxCell>
        <mxCell id="6ZaYhtCjvqtBv9yrYCe7-89" value="false&amp;nbsp;" style="shape=parallelogram;perimeter=parallelogramPerimeter;whiteSpace=wrap;html=1;fixedSize=1;" parent="1" vertex="1">
          <mxGeometry x="29.889999999999986" y="1800" width="120" height="60" as="geometry" />
        </mxCell>
        <mxCell id="6ZaYhtCjvqtBv9yrYCe7-90" value="" style="edgeStyle=orthogonalEdgeStyle;rounded=0;orthogonalLoop=1;jettySize=auto;html=1;" parent="1" source="6ZaYhtCjvqtBv9yrYCe7-91" target="6ZaYhtCjvqtBv9yrYCe7-96" edge="1">
          <mxGeometry relative="1" as="geometry" />
        </mxCell>
        <mxCell id="6ZaYhtCjvqtBv9yrYCe7-91" value="i = 0&amp;nbsp;" style="rounded=0;whiteSpace=wrap;html=1;" parent="1" vertex="1">
          <mxGeometry x="398.89" y="1380" width="120" height="60" as="geometry" />
        </mxCell>
        <mxCell id="6ZaYhtCjvqtBv9yrYCe7-92" style="edgeStyle=orthogonalEdgeStyle;rounded=0;orthogonalLoop=1;jettySize=auto;html=1;entryX=0.5;entryY=0;entryDx=0;entryDy=0;" parent="1" source="6ZaYhtCjvqtBv9yrYCe7-93" target="6ZaYhtCjvqtBv9yrYCe7-96" edge="1">
          <mxGeometry relative="1" as="geometry">
            <Array as="points">
              <mxPoint x="719.89" y="1910" />
              <mxPoint x="859.89" y="1910" />
              <mxPoint x="859.89" y="1470" />
              <mxPoint x="457.89" y="1470" />
            </Array>
          </mxGeometry>
        </mxCell>
        <mxCell id="6ZaYhtCjvqtBv9yrYCe7-93" value="i = i + 1" style="rounded=0;whiteSpace=wrap;html=1;" parent="1" vertex="1">
          <mxGeometry x="659.89" y="1800" width="120" height="60" as="geometry" />
        </mxCell>
        <mxCell id="6ZaYhtCjvqtBv9yrYCe7-94" value="" style="edgeStyle=orthogonalEdgeStyle;rounded=0;orthogonalLoop=1;jettySize=auto;html=1;" parent="1" source="6ZaYhtCjvqtBv9yrYCe7-96" target="6ZaYhtCjvqtBv9yrYCe7-87" edge="1">
          <mxGeometry relative="1" as="geometry" />
        </mxCell>
        <mxCell id="6ZaYhtCjvqtBv9yrYCe7-95" style="edgeStyle=orthogonalEdgeStyle;rounded=0;orthogonalLoop=1;jettySize=auto;html=1;" parent="1" source="6ZaYhtCjvqtBv9yrYCe7-96" target="6ZaYhtCjvqtBv9yrYCe7-89" edge="1">
          <mxGeometry relative="1" as="geometry" />
        </mxCell>
        <mxCell id="6ZaYhtCjvqtBv9yrYCe7-96" value="text[i] != 0&amp;nbsp;" style="rhombus;whiteSpace=wrap;html=1;" parent="1" vertex="1">
          <mxGeometry x="332.89" y="1490" width="250" height="90" as="geometry" />
        </mxCell>
        <mxCell id="6ZaYhtCjvqtBv9yrYCe7-97" value="yes" style="text;html=1;align=center;verticalAlign=middle;whiteSpace=wrap;rounded=0;" parent="1" vertex="1">
          <mxGeometry x="465.89" y="1600" width="60" height="30" as="geometry" />
        </mxCell>
        <mxCell id="6ZaYhtCjvqtBv9yrYCe7-98" value="yes" style="text;html=1;align=center;verticalAlign=middle;whiteSpace=wrap;rounded=0;" parent="1" vertex="1">
          <mxGeometry x="259.89" y="1670" width="60" height="30" as="geometry" />
        </mxCell>
        <mxCell id="6ZaYhtCjvqtBv9yrYCe7-99" style="edgeStyle=orthogonalEdgeStyle;rounded=0;orthogonalLoop=1;jettySize=auto;html=1;" parent="1" source="6ZaYhtCjvqtBv9yrYCe7-100" target="6ZaYhtCjvqtBv9yrYCe7-101" edge="1">
          <mxGeometry relative="1" as="geometry" />
        </mxCell>
        <mxCell id="6ZaYhtCjvqtBv9yrYCe7-100" value="true" style="shape=parallelogram;perimeter=parallelogramPerimeter;whiteSpace=wrap;html=1;fixedSize=1;" parent="1" vertex="1">
          <mxGeometry x="189.89" y="1800" width="120" height="60" as="geometry" />
        </mxCell>
        <mxCell id="6ZaYhtCjvqtBv9yrYCe7-101" value="end" style="rounded=1;whiteSpace=wrap;html=1;arcSize=50;" parent="1" vertex="1">
          <mxGeometry x="99.88999999999999" y="1940" width="120" height="60" as="geometry" />
        </mxCell>
        <mxCell id="6ZaYhtCjvqtBv9yrYCe7-102" value="" style="edgeStyle=orthogonalEdgeStyle;rounded=0;orthogonalLoop=1;jettySize=auto;html=1;" parent="1" source="6ZaYhtCjvqtBv9yrYCe7-103" target="6ZaYhtCjvqtBv9yrYCe7-105" edge="1">
          <mxGeometry relative="1" as="geometry" />
        </mxCell>
        <mxCell id="6ZaYhtCjvqtBv9yrYCe7-103" value="contains_special_characters" style="rounded=1;whiteSpace=wrap;html=1;arcSize=50;" parent="1" vertex="1">
          <mxGeometry x="1201.5" y="1140" width="195" height="60" as="geometry" />
        </mxCell>
        <mxCell id="6ZaYhtCjvqtBv9yrYCe7-104" value="" style="edgeStyle=orthogonalEdgeStyle;rounded=0;orthogonalLoop=1;jettySize=auto;html=1;" parent="1" source="6ZaYhtCjvqtBv9yrYCe7-105" target="6ZaYhtCjvqtBv9yrYCe7-112" edge="1">
          <mxGeometry relative="1" as="geometry" />
        </mxCell>
        <mxCell id="6ZaYhtCjvqtBv9yrYCe7-105" value="text" style="shape=parallelogram;perimeter=parallelogramPerimeter;whiteSpace=wrap;html=1;fixedSize=1;" parent="1" vertex="1">
          <mxGeometry x="1239" y="1270" width="120" height="60" as="geometry" />
        </mxCell>
        <mxCell id="6ZaYhtCjvqtBv9yrYCe7-106" style="edgeStyle=orthogonalEdgeStyle;rounded=0;orthogonalLoop=1;jettySize=auto;html=1;entryX=0.5;entryY=0;entryDx=0;entryDy=0;" parent="1" source="6ZaYhtCjvqtBv9yrYCe7-108" edge="1">
          <mxGeometry relative="1" as="geometry">
            <mxPoint x="1558.9999999999995" y="1800" as="targetPoint" />
          </mxGeometry>
        </mxCell>
        <mxCell id="6ZaYhtCjvqtBv9yrYCe7-107" style="edgeStyle=orthogonalEdgeStyle;rounded=0;orthogonalLoop=1;jettySize=auto;html=1;" parent="1" source="6ZaYhtCjvqtBv9yrYCe7-108" target="6ZaYhtCjvqtBv9yrYCe7-121" edge="1">
          <mxGeometry relative="1" as="geometry">
            <Array as="points">
              <mxPoint x="1090" y="1715" />
            </Array>
          </mxGeometry>
        </mxCell>
        <mxCell id="6ZaYhtCjvqtBv9yrYCe7-108" value="text[i] &amp;lt;= 47 and text[i] &amp;gt;= 33&lt;br&gt;or&amp;nbsp;&lt;br&gt;text[i] &amp;lt;= 64 and text[i] &amp;gt;= 58&lt;div&gt;or&amp;nbsp;&lt;/div&gt;&lt;div&gt;text[i] &amp;lt;= 96 and text[i] &amp;gt;= 91&lt;/div&gt;&lt;div&gt;or&lt;/div&gt;&lt;div&gt;text[i] &amp;lt;= 126 and text[i] &amp;gt;= 123&lt;br&gt;&amp;nbsp;&lt;/div&gt;" style="rhombus;whiteSpace=wrap;html=1;" parent="1" vertex="1">
          <mxGeometry x="1137" y="1650" width="322" height="130" as="geometry" />
        </mxCell>
        <mxCell id="6ZaYhtCjvqtBv9yrYCe7-109" style="edgeStyle=orthogonalEdgeStyle;rounded=0;orthogonalLoop=1;jettySize=auto;html=1;" parent="1" source="6ZaYhtCjvqtBv9yrYCe7-110" target="6ZaYhtCjvqtBv9yrYCe7-122" edge="1">
          <mxGeometry relative="1" as="geometry" />
        </mxCell>
        <mxCell id="6ZaYhtCjvqtBv9yrYCe7-110" value="false&amp;nbsp;" style="shape=parallelogram;perimeter=parallelogramPerimeter;whiteSpace=wrap;html=1;fixedSize=1;" parent="1" vertex="1">
          <mxGeometry x="870" y="1800" width="120" height="60" as="geometry" />
        </mxCell>
        <mxCell id="6ZaYhtCjvqtBv9yrYCe7-111" value="" style="edgeStyle=orthogonalEdgeStyle;rounded=0;orthogonalLoop=1;jettySize=auto;html=1;" parent="1" source="6ZaYhtCjvqtBv9yrYCe7-112" target="6ZaYhtCjvqtBv9yrYCe7-117" edge="1">
          <mxGeometry relative="1" as="geometry" />
        </mxCell>
        <mxCell id="6ZaYhtCjvqtBv9yrYCe7-112" value="i = 0&amp;nbsp;" style="rounded=0;whiteSpace=wrap;html=1;" parent="1" vertex="1">
          <mxGeometry x="1239" y="1380" width="120" height="60" as="geometry" />
        </mxCell>
        <mxCell id="6ZaYhtCjvqtBv9yrYCe7-113" style="edgeStyle=orthogonalEdgeStyle;rounded=0;orthogonalLoop=1;jettySize=auto;html=1;entryX=0.5;entryY=0;entryDx=0;entryDy=0;" parent="1" source="6ZaYhtCjvqtBv9yrYCe7-114" target="6ZaYhtCjvqtBv9yrYCe7-117" edge="1">
          <mxGeometry relative="1" as="geometry">
            <Array as="points">
              <mxPoint x="1560" y="1910" />
              <mxPoint x="1700" y="1910" />
              <mxPoint x="1700" y="1470" />
              <mxPoint x="1298" y="1470" />
            </Array>
          </mxGeometry>
        </mxCell>
        <mxCell id="6ZaYhtCjvqtBv9yrYCe7-114" value="i = i + 1" style="rounded=0;whiteSpace=wrap;html=1;" parent="1" vertex="1">
          <mxGeometry x="1500" y="1800" width="120" height="60" as="geometry" />
        </mxCell>
        <mxCell id="6ZaYhtCjvqtBv9yrYCe7-115" value="" style="edgeStyle=orthogonalEdgeStyle;rounded=0;orthogonalLoop=1;jettySize=auto;html=1;" parent="1" source="6ZaYhtCjvqtBv9yrYCe7-117" target="6ZaYhtCjvqtBv9yrYCe7-108" edge="1">
          <mxGeometry relative="1" as="geometry" />
        </mxCell>
        <mxCell id="6ZaYhtCjvqtBv9yrYCe7-116" style="edgeStyle=orthogonalEdgeStyle;rounded=0;orthogonalLoop=1;jettySize=auto;html=1;" parent="1" source="6ZaYhtCjvqtBv9yrYCe7-117" target="6ZaYhtCjvqtBv9yrYCe7-110" edge="1">
          <mxGeometry relative="1" as="geometry" />
        </mxCell>
        <mxCell id="6ZaYhtCjvqtBv9yrYCe7-117" value="text[i] != 0&amp;nbsp;" style="rhombus;whiteSpace=wrap;html=1;" parent="1" vertex="1">
          <mxGeometry x="1173" y="1490" width="250" height="90" as="geometry" />
        </mxCell>
        <mxCell id="6ZaYhtCjvqtBv9yrYCe7-118" value="yes" style="text;html=1;align=center;verticalAlign=middle;whiteSpace=wrap;rounded=0;" parent="1" vertex="1">
          <mxGeometry x="1306" y="1600" width="60" height="30" as="geometry" />
        </mxCell>
        <mxCell id="6ZaYhtCjvqtBv9yrYCe7-119" value="yes" style="text;html=1;align=center;verticalAlign=middle;whiteSpace=wrap;rounded=0;" parent="1" vertex="1">
          <mxGeometry x="1100" y="1670" width="60" height="30" as="geometry" />
        </mxCell>
        <mxCell id="6ZaYhtCjvqtBv9yrYCe7-120" style="edgeStyle=orthogonalEdgeStyle;rounded=0;orthogonalLoop=1;jettySize=auto;html=1;" parent="1" source="6ZaYhtCjvqtBv9yrYCe7-121" target="6ZaYhtCjvqtBv9yrYCe7-122" edge="1">
          <mxGeometry relative="1" as="geometry" />
        </mxCell>
        <mxCell id="6ZaYhtCjvqtBv9yrYCe7-121" value="true" style="shape=parallelogram;perimeter=parallelogramPerimeter;whiteSpace=wrap;html=1;fixedSize=1;" parent="1" vertex="1">
          <mxGeometry x="1030" y="1800" width="120" height="60" as="geometry" />
        </mxCell>
        <mxCell id="6ZaYhtCjvqtBv9yrYCe7-122" value="end" style="rounded=1;whiteSpace=wrap;html=1;arcSize=50;" parent="1" vertex="1">
          <mxGeometry x="940" y="1940" width="120" height="60" as="geometry" />
        </mxCell>
        <mxCell id="6ZaYhtCjvqtBv9yrYCe7-132" style="edgeStyle=orthogonalEdgeStyle;rounded=0;orthogonalLoop=1;jettySize=auto;html=1;entryX=0.5;entryY=0;entryDx=0;entryDy=0;" parent="1" source="6ZaYhtCjvqtBv9yrYCe7-128" target="6ZaYhtCjvqtBv9yrYCe7-130" edge="1">
          <mxGeometry relative="1" as="geometry" />
        </mxCell>
        <mxCell id="6ZaYhtCjvqtBv9yrYCe7-128" value="score = score + 1" style="rounded=0;whiteSpace=wrap;html=1;" parent="1" vertex="1">
          <mxGeometry x="-130" y="470" width="120" height="30" as="geometry" />
        </mxCell>
        <mxCell id="6ZaYhtCjvqtBv9yrYCe7-136" style="edgeStyle=orthogonalEdgeStyle;rounded=0;orthogonalLoop=1;jettySize=auto;html=1;" parent="1" source="6ZaYhtCjvqtBv9yrYCe7-130" target="6ZaYhtCjvqtBv9yrYCe7-135" edge="1">
          <mxGeometry relative="1" as="geometry">
            <Array as="points">
              <mxPoint x="-80" y="590" />
            </Array>
          </mxGeometry>
        </mxCell>
        <mxCell id="6ZaYhtCjvqtBv9yrYCe7-144" style="edgeStyle=orthogonalEdgeStyle;rounded=0;orthogonalLoop=1;jettySize=auto;html=1;entryX=0.5;entryY=0;entryDx=0;entryDy=0;" parent="1" source="6ZaYhtCjvqtBv9yrYCe7-130" target="6ZaYhtCjvqtBv9yrYCe7-143" edge="1">
          <mxGeometry relative="1" as="geometry" />
        </mxCell>
        <mxCell id="6ZaYhtCjvqtBv9yrYCe7-130" value="score &amp;lt; 3&amp;nbsp;" style="rhombus;whiteSpace=wrap;html=1;" parent="1" vertex="1">
          <mxGeometry x="-20" y="550" width="220" height="80" as="geometry" />
        </mxCell>
        <mxCell id="6ZaYhtCjvqtBv9yrYCe7-139" style="edgeStyle=orthogonalEdgeStyle;rounded=0;orthogonalLoop=1;jettySize=auto;html=1;entryX=0.5;entryY=0;entryDx=0;entryDy=0;" parent="1" source="6ZaYhtCjvqtBv9yrYCe7-135" target="6ZaYhtCjvqtBv9yrYCe7-138" edge="1">
          <mxGeometry relative="1" as="geometry" />
        </mxCell>
        <mxCell id="6ZaYhtCjvqtBv9yrYCe7-141" style="edgeStyle=orthogonalEdgeStyle;rounded=0;orthogonalLoop=1;jettySize=auto;html=1;" parent="1" source="6ZaYhtCjvqtBv9yrYCe7-135" target="6ZaYhtCjvqtBv9yrYCe7-140" edge="1">
          <mxGeometry relative="1" as="geometry" />
        </mxCell>
        <mxCell id="6ZaYhtCjvqtBv9yrYCe7-135" value="score &amp;gt;= 5&amp;nbsp;&amp;nbsp;" style="rhombus;whiteSpace=wrap;html=1;" parent="1" vertex="1">
          <mxGeometry x="-190" y="680" width="220" height="80" as="geometry" />
        </mxCell>
        <mxCell id="6ZaYhtCjvqtBv9yrYCe7-137" value="no&amp;nbsp;" style="text;html=1;align=center;verticalAlign=middle;whiteSpace=wrap;rounded=0;" parent="1" vertex="1">
          <mxGeometry x="-267" y="680" width="60" height="30" as="geometry" />
        </mxCell>
        <mxCell id="6ZaYhtCjvqtBv9yrYCe7-146" style="edgeStyle=orthogonalEdgeStyle;rounded=0;orthogonalLoop=1;jettySize=auto;html=1;" parent="1" source="6ZaYhtCjvqtBv9yrYCe7-138" target="6ZaYhtCjvqtBv9yrYCe7-145" edge="1">
          <mxGeometry relative="1" as="geometry">
            <Array as="points">
              <mxPoint x="-264" y="890" />
              <mxPoint x="60" y="890" />
            </Array>
          </mxGeometry>
        </mxCell>
        <mxCell id="6ZaYhtCjvqtBv9yrYCe7-138" value="pokatit&amp;nbsp;" style="shape=parallelogram;perimeter=parallelogramPerimeter;whiteSpace=wrap;html=1;fixedSize=1;" parent="1" vertex="1">
          <mxGeometry x="-324" y="770" width="120" height="60" as="geometry" />
        </mxCell>
        <mxCell id="6ZaYhtCjvqtBv9yrYCe7-147" style="edgeStyle=orthogonalEdgeStyle;rounded=0;orthogonalLoop=1;jettySize=auto;html=1;entryX=0.5;entryY=0;entryDx=0;entryDy=0;" parent="1" source="6ZaYhtCjvqtBv9yrYCe7-140" target="6ZaYhtCjvqtBv9yrYCe7-145" edge="1">
          <mxGeometry relative="1" as="geometry">
            <Array as="points">
              <mxPoint x="110" y="890" />
              <mxPoint x="60" y="890" />
            </Array>
          </mxGeometry>
        </mxCell>
        <mxCell id="6ZaYhtCjvqtBv9yrYCe7-140" value="its over" style="shape=parallelogram;perimeter=parallelogramPerimeter;whiteSpace=wrap;html=1;fixedSize=1;" parent="1" vertex="1">
          <mxGeometry x="50" y="770" width="120" height="60" as="geometry" />
        </mxCell>
        <mxCell id="6ZaYhtCjvqtBv9yrYCe7-148" style="edgeStyle=orthogonalEdgeStyle;rounded=0;orthogonalLoop=1;jettySize=auto;html=1;" parent="1" source="6ZaYhtCjvqtBv9yrYCe7-143" edge="1">
          <mxGeometry relative="1" as="geometry">
            <mxPoint x="60" y="940" as="targetPoint" />
            <Array as="points">
              <mxPoint x="339" y="890" />
              <mxPoint x="60" y="890" />
            </Array>
          </mxGeometry>
        </mxCell>
        <mxCell id="6ZaYhtCjvqtBv9yrYCe7-143" value="you are weak bro&amp;nbsp;" style="shape=parallelogram;perimeter=parallelogramPerimeter;whiteSpace=wrap;html=1;fixedSize=1;" parent="1" vertex="1">
          <mxGeometry x="279" y="640" width="120" height="60" as="geometry" />
        </mxCell>
        <mxCell id="6ZaYhtCjvqtBv9yrYCe7-145" value="END&amp;nbsp;" style="rounded=1;whiteSpace=wrap;html=1;arcSize=50;" parent="1" vertex="1">
          <mxGeometry y="940" width="120" height="60" as="geometry" />
        </mxCell>
        <mxCell id="6ZaYhtCjvqtBv9yrYCe7-149" value="" style="edgeStyle=orthogonalEdgeStyle;rounded=0;orthogonalLoop=1;jettySize=auto;html=1;" parent="1" source="6ZaYhtCjvqtBv9yrYCe7-150" target="6ZaYhtCjvqtBv9yrYCe7-152" edge="1">
          <mxGeometry relative="1" as="geometry" />
        </mxCell>
        <mxCell id="6ZaYhtCjvqtBv9yrYCe7-150" value="contains_digits" style="rounded=1;whiteSpace=wrap;html=1;arcSize=50;" parent="1" vertex="1">
          <mxGeometry x="2911.5" y="1140" width="195" height="60" as="geometry" />
        </mxCell>
        <mxCell id="6ZaYhtCjvqtBv9yrYCe7-151" value="" style="edgeStyle=orthogonalEdgeStyle;rounded=0;orthogonalLoop=1;jettySize=auto;html=1;" parent="1" source="6ZaYhtCjvqtBv9yrYCe7-152" target="6ZaYhtCjvqtBv9yrYCe7-159" edge="1">
          <mxGeometry relative="1" as="geometry" />
        </mxCell>
        <mxCell id="6ZaYhtCjvqtBv9yrYCe7-152" value="text" style="shape=parallelogram;perimeter=parallelogramPerimeter;whiteSpace=wrap;html=1;fixedSize=1;" parent="1" vertex="1">
          <mxGeometry x="2949" y="1270" width="120" height="60" as="geometry" />
        </mxCell>
        <mxCell id="6ZaYhtCjvqtBv9yrYCe7-153" style="edgeStyle=orthogonalEdgeStyle;rounded=0;orthogonalLoop=1;jettySize=auto;html=1;entryX=0.5;entryY=0;entryDx=0;entryDy=0;" parent="1" source="6ZaYhtCjvqtBv9yrYCe7-155" edge="1">
          <mxGeometry relative="1" as="geometry">
            <mxPoint x="3268.9999999999995" y="1800" as="targetPoint" />
          </mxGeometry>
        </mxCell>
        <mxCell id="6ZaYhtCjvqtBv9yrYCe7-154" style="edgeStyle=orthogonalEdgeStyle;rounded=0;orthogonalLoop=1;jettySize=auto;html=1;" parent="1" source="6ZaYhtCjvqtBv9yrYCe7-155" target="6ZaYhtCjvqtBv9yrYCe7-168" edge="1">
          <mxGeometry relative="1" as="geometry">
            <Array as="points">
              <mxPoint x="2800" y="1715" />
            </Array>
          </mxGeometry>
        </mxCell>
        <mxCell id="6ZaYhtCjvqtBv9yrYCe7-155" value="text[i] &amp;lt;= 57 and text[i] &amp;gt;= 48&amp;nbsp;" style="rhombus;whiteSpace=wrap;html=1;" parent="1" vertex="1">
          <mxGeometry x="2847" y="1650" width="322" height="130" as="geometry" />
        </mxCell>
        <mxCell id="6ZaYhtCjvqtBv9yrYCe7-156" style="edgeStyle=orthogonalEdgeStyle;rounded=0;orthogonalLoop=1;jettySize=auto;html=1;" parent="1" source="6ZaYhtCjvqtBv9yrYCe7-157" target="6ZaYhtCjvqtBv9yrYCe7-169" edge="1">
          <mxGeometry relative="1" as="geometry" />
        </mxCell>
        <mxCell id="6ZaYhtCjvqtBv9yrYCe7-157" value="false&amp;nbsp;" style="shape=parallelogram;perimeter=parallelogramPerimeter;whiteSpace=wrap;html=1;fixedSize=1;" parent="1" vertex="1">
          <mxGeometry x="2580" y="1800" width="120" height="60" as="geometry" />
        </mxCell>
        <mxCell id="6ZaYhtCjvqtBv9yrYCe7-158" value="" style="edgeStyle=orthogonalEdgeStyle;rounded=0;orthogonalLoop=1;jettySize=auto;html=1;" parent="1" source="6ZaYhtCjvqtBv9yrYCe7-159" target="6ZaYhtCjvqtBv9yrYCe7-164" edge="1">
          <mxGeometry relative="1" as="geometry" />
        </mxCell>
        <mxCell id="6ZaYhtCjvqtBv9yrYCe7-159" value="i = 0&amp;nbsp;" style="rounded=0;whiteSpace=wrap;html=1;" parent="1" vertex="1">
          <mxGeometry x="2949" y="1380" width="120" height="60" as="geometry" />
        </mxCell>
        <mxCell id="6ZaYhtCjvqtBv9yrYCe7-160" style="edgeStyle=orthogonalEdgeStyle;rounded=0;orthogonalLoop=1;jettySize=auto;html=1;entryX=0.5;entryY=0;entryDx=0;entryDy=0;" parent="1" source="6ZaYhtCjvqtBv9yrYCe7-161" target="6ZaYhtCjvqtBv9yrYCe7-164" edge="1">
          <mxGeometry relative="1" as="geometry">
            <Array as="points">
              <mxPoint x="3270" y="1910" />
              <mxPoint x="3410" y="1910" />
              <mxPoint x="3410" y="1470" />
              <mxPoint x="3008" y="1470" />
            </Array>
          </mxGeometry>
        </mxCell>
        <mxCell id="6ZaYhtCjvqtBv9yrYCe7-161" value="i = i + 1" style="rounded=0;whiteSpace=wrap;html=1;" parent="1" vertex="1">
          <mxGeometry x="3210" y="1800" width="120" height="60" as="geometry" />
        </mxCell>
        <mxCell id="6ZaYhtCjvqtBv9yrYCe7-162" value="" style="edgeStyle=orthogonalEdgeStyle;rounded=0;orthogonalLoop=1;jettySize=auto;html=1;" parent="1" source="6ZaYhtCjvqtBv9yrYCe7-164" target="6ZaYhtCjvqtBv9yrYCe7-155" edge="1">
          <mxGeometry relative="1" as="geometry" />
        </mxCell>
        <mxCell id="6ZaYhtCjvqtBv9yrYCe7-163" style="edgeStyle=orthogonalEdgeStyle;rounded=0;orthogonalLoop=1;jettySize=auto;html=1;" parent="1" source="6ZaYhtCjvqtBv9yrYCe7-164" target="6ZaYhtCjvqtBv9yrYCe7-157" edge="1">
          <mxGeometry relative="1" as="geometry" />
        </mxCell>
        <mxCell id="6ZaYhtCjvqtBv9yrYCe7-164" value="text[i] != 0&amp;nbsp;" style="rhombus;whiteSpace=wrap;html=1;" parent="1" vertex="1">
          <mxGeometry x="2883" y="1490" width="250" height="90" as="geometry" />
        </mxCell>
        <mxCell id="6ZaYhtCjvqtBv9yrYCe7-165" value="yes" style="text;html=1;align=center;verticalAlign=middle;whiteSpace=wrap;rounded=0;" parent="1" vertex="1">
          <mxGeometry x="3016" y="1600" width="60" height="30" as="geometry" />
        </mxCell>
        <mxCell id="6ZaYhtCjvqtBv9yrYCe7-166" value="yes" style="text;html=1;align=center;verticalAlign=middle;whiteSpace=wrap;rounded=0;" parent="1" vertex="1">
          <mxGeometry x="2810" y="1670" width="60" height="30" as="geometry" />
        </mxCell>
        <mxCell id="6ZaYhtCjvqtBv9yrYCe7-167" style="edgeStyle=orthogonalEdgeStyle;rounded=0;orthogonalLoop=1;jettySize=auto;html=1;" parent="1" source="6ZaYhtCjvqtBv9yrYCe7-168" target="6ZaYhtCjvqtBv9yrYCe7-169" edge="1">
          <mxGeometry relative="1" as="geometry" />
        </mxCell>
        <mxCell id="6ZaYhtCjvqtBv9yrYCe7-168" value="true" style="shape=parallelogram;perimeter=parallelogramPerimeter;whiteSpace=wrap;html=1;fixedSize=1;" parent="1" vertex="1">
          <mxGeometry x="2740" y="1800" width="120" height="60" as="geometry" />
        </mxCell>
        <mxCell id="6ZaYhtCjvqtBv9yrYCe7-169" value="end" style="rounded=1;whiteSpace=wrap;html=1;arcSize=50;" parent="1" vertex="1">
          <mxGeometry x="2650" y="1940" width="120" height="60" as="geometry" />
        </mxCell>
      </root>
    </mxGraphModel>
  </diagram>
</mxfile>
